<svg width="772.69512" height="507.07093" xmlns="http://www.w3.org/2000/svg" xmlns:xlink="http://www.w3.org/1999/xlink">
 <defs>
  <filter id="filter3929">
   <feGaussianBlur id="feGaussianBlur3931" stdDeviation="9.147841"/>
  </filter>
  <linearGradient id="linearGradient3933">
   <stop stop-color="#000000" id="stop3935" offset="0"/>
   <stop stop-color="#000000" stop-opacity="0" id="stop3937" offset="1"/>
  </linearGradient>
  <linearGradient id="linearGradient3860">
   <stop stop-color="#2e3436" id="stop3862" offset="0"/>
   <stop stop-color="#2e3436" stop-opacity="0" id="stop3864" offset="1"/>
  </linearGradient>
  <linearGradient id="linearGradient3850">
   <stop stop-color="#2e3436" id="stop3852" offset="0"/>
   <stop stop-color="#2e3436" stop-opacity="0" id="stop3854" offset="1"/>
  </linearGradient>
  <linearGradient id="linearGradient3826">
   <stop stop-color="#ffffff" id="stop3828" offset="0"/>
   <stop stop-color="#ffffff" stop-opacity="0" id="stop3830" offset="1"/>
  </linearGradient>
  <linearGradient id="linearGradient3816">
   <stop stop-color="#ffffff" id="stop3818" offset="0"/>
   <stop stop-color="#ffffff" stop-opacity="0" id="stop3820" offset="1"/>
  </linearGradient>
  <linearGradient id="linearGradient3806">
   <stop stop-color="#ffffff" id="stop3808" offset="0"/>
   <stop stop-color="#ffffff" stop-opacity="0" id="stop3810" offset="1"/>
  </linearGradient>
  <linearGradient y2="0.971297" x2="0.743712" y1="0.060424" x1="0.47446" id="linearGradient3887" xlink:href="#linearGradient3806"/>
  <linearGradient y2="0.504696" x2="1.121767" y1="0.504696" x1="-0.112621" id="linearGradient3889" xlink:href="#linearGradient3816"/>
  <linearGradient y2="0.5" x2="1.14202" y1="0.5" x1="-0.136793" id="linearGradient3891" xlink:href="#linearGradient3826"/>
  <linearGradient y2="-0.172924" x2="0.556072" y1="0.980661" x1="0.607099" id="linearGradient3893" xlink:href="#linearGradient3850"/>
  <linearGradient y2="0.033154" x2="0.468691" y1="0.786608" x1="0.497132" id="linearGradient3895" xlink:href="#linearGradient3860"/>
  <radialGradient gradientUnits="userSpaceOnUse" gradientTransform="matrix(1.932474,0.05330946,-0.03393574,1.2301745,-326.63833,-161.88545)" r="342.17319" fy="616.98645" fx="372.74628" cy="616.98645" cx="372.74628" id="radialGradient3939" xlink:href="#linearGradient3933"/>
 </defs>
 <metadata id="metadata7">image/svg+xmlpackageMar 2011Franziska SponselFranziska SponselRRZEpackagemailsoftwareBeate Kaspar, Hendrik Eggersimage/svg+xml</metadata>
 <g>
  <title>background</title>
  <rect fill="none" id="canvas_background" height="402" width="582" y="-1" x="-1"/>
 </g>
 <g>
  <title>Layer 1</title>
  <g stroke="null" id="g3941">
   <path opacity="0.933962" fill="url(#radialGradient3939)" filter="url(#filter3929)" d="m98.32424,366.49303l212.675849,114.071601l369.282608,-87.003767l-34.801491,-181.741172l-278.412027,-42.535168l-266.811517,61.869325l-1.933422,135.33918z" id="path3899"/>
   <rect fill="none" id="rect2985" width="648.142885" height="648.142885" x="65.488862" y="-117.673802"/>
   <g stroke="null" id="g3872" transform="matrix(1.4126308467388033,0,0,1.4126308467388033,-290.5392675922194,-208.59260419127872) ">
    <path opacity="0.742138" fill="#000000" id="rect3893" d="m277.624296,219.656068l242.85715,-60l0,162.85715l-242.85715,60l0,-162.85715z"/>
    <path stroke="#8f5902" fill="#c17d11" stroke-width="11.682827" stroke-linejoin="round" stroke-miterlimit="4" id="path3898" d="m276.043716,218.866458l146.29909,78.89542l0,162.84821l-145.34289,-79.90689l-0.9562,-161.83674z"/>
    <path stroke="#8f5902" fill="#c17d11" stroke-width="11.949546" stroke-linejoin="round" stroke-miterlimit="4" d="m430.883336,299.276778l240.76475,-60.01359l0,162.89402l-240.76475,60.01359l0,-162.89402z" id="path3896"/>
    <path stroke="#8f5902" fill="#c17d11" stroke-width="12" stroke-linejoin="round" stroke-miterlimit="4" id="path3900" d="m275.906436,218.729178l242.43661,-58.58884l154.55334,78.79189l-242.43661,60.60916l-154.55334,-80.81221z"/>
    <path stroke="#ffffff" opacity="0.300189" fill="url(#linearGradient3887)" stroke-width="10.624379" stroke-miterlimit="4" id="path3804" d="m441.866516,308.684828l218.0841,-54.51374l0,139.29236l-218.0841,55.22802l0,-140.00664z"/>
    <path stroke="#8f5902" opacity="0.940252" fill="#2e3436" stroke-width="10" stroke-linecap="round" stroke-miterlimit="4" id="path3868" d="m560.899226,265.726338l-1.40993,165.69565"/>
    <path stroke="#ffffff" opacity="0.293585" fill="url(#linearGradient3889)" stroke-width="12" stroke-miterlimit="4" d="m307.221166,222.769788l210.11173,-50.50762l121.2183,62.62945l-206.84667,51.45651l-124.48336,-63.57834z" id="path3814"/>
    <path stroke="#ffffff" opacity="0.163522" fill="url(#linearGradient3891)" stroke-width="11.682827" stroke-miterlimit="4" d="m287.155396,238.059358l123.484,66.89614l-1.42857,136.46169l-122.10938,-68.79521l0.05395,-134.56262z" id="path3824"/>
    <path stroke="#8f5902" fill="#8f5902" stroke-width="3" stroke-miterlimit="4" id="path3834" d="m386.326976,187.268148l141.72444,91.02501l1.55112,85.6066l14.42313,-25.15228l9.96411,8.65808l8.36221,-19.49492l5.08666,15.25997l7.82126,-9.96411l9.42313,17.40283l-1.42857,-89.64721l-140.99529,-87.31617l-55.9322,13.6222z"/>
    <path stroke="#eeeeec" opacity="0.638365" fill="#2e3436" stroke-width="3" stroke-miterlimit="4" id="path3800" d="m387.084596,187.773218l140.96682,90.51995l1.55112,85.6066l14.17059,-24.89976l10.21665,8.40555l8.10968,-18.98984l5.33919,14.50235l7.82126,-9.96411l9.17059,16.89775l-0.67095,-88.38452l-141.24783,-87.82124l-55.42712,14.12727z"/>
    <path stroke="url(#linearGradient3893)" opacity="0.45283" fill="none" stroke-width="11.949546" stroke-linejoin="round" stroke-miterlimit="4" id="path3840" d="m430.883336,299.276778l240.76475,-60.01359l0,162.89402l-240.76475,60.01359l0,-162.89402z"/>
    <path stroke="#8f5902" opacity="0.940252" fill="#8f5902" stroke-width="10" stroke-linecap="round" stroke-miterlimit="4" d="m339.519916,257.105648l-1.50845,151.50847" id="path3870"/>
    <path stroke="url(#linearGradient3895)" opacity="0.487421" fill="none" stroke-width="11.682827" stroke-linejoin="round" stroke-miterlimit="4" d="m276.043716,218.866458l146.29909,78.89542l0,162.84821l-145.34289,-79.90689l-0.9562,-161.83674z" id="path3858"/>
   </g>
  </g>
 </g>
</svg>